<svg width="77" height="77" viewBox="0 0 77 77" fill="none" xmlns="http://www.w3.org/2000/svg">
<path d="M58.9531 73.3906H18.0469C16.1323 73.3906 14.2962 72.6301 12.9424 71.2763C11.5887 69.9225 10.8281 68.0864 10.8281 66.1719V10.8281C10.8281 8.91359 11.5887 7.07748 12.9424 5.7237C14.2962 4.36992 16.1323 3.60938 18.0469 3.60938H51.7344L66.1719 18.0469V66.1719C66.1719 68.0864 65.4113 69.9225 64.0576 71.2763C62.7038 72.6301 60.8677 73.3906 58.9531 73.3906Z" fill="#F4C39F"/>
<path d="M10.8281 54.1406H66.1719V66.1719C66.1719 68.0864 65.4113 69.9225 64.0576 71.2763C62.7038 72.6301 60.8677 73.3906 58.9531 73.3906H18.0469C16.1323 73.3906 14.2962 72.6301 12.9424 71.2763C11.5887 69.9225 10.8281 68.0864 10.8281 66.1719V54.1406Z" fill="#FF9A51"/>
<path d="M66.1719 18.0469H58.9531C57.0386 18.0469 55.2025 17.2863 53.8487 15.9326C52.4949 14.5788 51.7344 12.7427 51.7344 10.8281V3.60938L66.1719 18.0469Z" fill="#FDA769"/>
<path d="M38.5 44.5156C46.4736 44.5156 52.9375 38.0517 52.9375 30.0781C52.9375 22.1045 46.4736 15.6406 38.5 15.6406C30.5264 15.6406 24.0625 22.1045 24.0625 30.0781C24.0625 38.0517 30.5264 44.5156 38.5 44.5156Z" fill="#FFA96B"/>
<path d="M46.97 30.03L34.265 36.6984V23.3616L46.97 30.03Z" fill="white"/>
<path d="M36.65 67V59.91H35.02L32.75 65.32L30.45 59.91H28.85V67H30.02V61.8L32.21 67H33.25L35.46 61.78V67H36.65ZM39.552 63.17V60.97H40.802C41.562 60.97 42.022 61.4 42.022 62.08C42.022 62.75 41.562 63.17 40.802 63.17H39.552ZM40.982 64.23C42.342 64.23 43.242 63.32 43.242 62.07C43.242 60.83 42.342 59.91 40.982 59.91H38.352V67H39.552V64.23H40.982ZM43.8476 65.58H46.9676V67H48.1476V65.58H49.2376V64.52H48.1476V60.52H46.6076L43.8476 64.28V65.58ZM46.9676 64.52H44.9276L46.9676 61.73V64.52Z" fill="white"/>
</svg>
