<svg width="1440" height="416" viewBox="0 0 1440 416" fill="none" xmlns="http://www.w3.org/2000/svg">
<path fill-rule="evenodd" clip-rule="evenodd" d="M0 0H60C120 0 240 0 360 51.9815C480 103.963 600 207.926 720 200.5C840 193.074 960 74.2593 1080 44.5556C1200 14.8518 1320 74.2593 1380 103.963L1440 133.667V401H1380C1320 401 1200 401 1080 401C960 401 840 401 720 401C600 401 480 401 360 401C240 401 120 401 60 401H0V0Z" fill="#0F8BFE" fill-opacity="0.1"/>
<path fill-rule="evenodd" clip-rule="evenodd" d="M0 166H60C120 166 240 166 360 198.407C480 230.815 600 295.63 720 291C840 286.37 960 212.296 1080 193.778C1200 175.259 1320 212.296 1380 230.815L1440 249.333V416H1380C1320 416 1200 416 1080 416C960 416 840 416 720 416C600 416 480 416 360 416C240 416 120 416 60 416H0V166Z" fill="#0F8BFE" fill-opacity="0.2"/>
<path fill-rule="evenodd" clip-rule="evenodd" d="M0 288H60C120 288 240 288 360 304.593C480 321.185 600 354.37 720 352C840 349.63 960 311.704 1080 302.222C1200 292.741 1320 311.704 1380 321.185L1440 330.667V416H1380C1320 416 1200 416 1080 416C960 416 840 416 720 416C600 416 480 416 360 416C240 416 120 416 60 416H0V288Z" fill="#0F8BFE" fill-opacity="0.3"/>
</svg>
