<svg width="77" height="77" viewBox="0 0 77 77" fill="none" xmlns="http://www.w3.org/2000/svg">
<path d="M58.9531 73.3906H18.0469C16.1323 73.3906 14.2962 72.6301 12.9424 71.2763C11.5887 69.9225 10.8281 68.0864 10.8281 66.1719V10.8281C10.8281 8.91359 11.5887 7.07748 12.9424 5.7237C14.2962 4.36992 16.1323 3.60938 18.0469 3.60938H51.7344L66.1719 18.0469V66.1719C66.1719 68.0864 65.4113 69.9225 64.0576 71.2763C62.7038 72.6301 60.8677 73.3906 58.9531 73.3906Z" fill="#CFD2FC"/>
<path d="M10.8281 54.1406H66.1719V66.1719C66.1719 68.0864 65.4113 69.9225 64.0576 71.2763C62.7038 72.6301 60.8677 73.3906 58.9531 73.3906H18.0469C16.1323 73.3906 14.2962 72.6301 12.9424 71.2763C11.5887 69.9225 10.8281 68.0864 10.8281 66.1719V54.1406Z" fill="#5153FF"/>
<path d="M66.1719 18.0469H58.9531C57.0386 18.0469 55.2025 17.2863 53.8487 15.9326C52.4949 14.5788 51.7344 12.7427 51.7344 10.8281V3.60938L66.1719 18.0469Z" fill="#8690FA"/>
<path d="M38.5 44.5156C46.4736 44.5156 52.9375 38.0517 52.9375 30.0781C52.9375 22.1045 46.4736 15.6406 38.5 15.6406C30.5264 15.6406 24.0625 22.1045 24.0625 30.0781C24.0625 38.0517 30.5264 44.5156 38.5 44.5156Z" fill="#8690FA"/>
<path d="M36.65 68V60.91H35.02L32.75 66.32L30.45 60.91H28.85V68H30.02V62.8L32.21 68H33.25L35.46 62.78V68H36.65ZM39.552 64.17V61.97H40.802C41.562 61.97 42.022 62.4 42.022 63.08C42.022 63.75 41.562 64.17 40.802 64.17H39.552ZM40.982 65.23C42.342 65.23 43.242 64.32 43.242 63.07C43.242 61.83 42.342 60.91 40.982 60.91H38.352V68H39.552V65.23H40.982ZM45.7076 65.06C45.8076 65.01 46.0076 64.95 46.3176 64.95C46.8676 64.95 47.4676 65.27 47.4676 66.02C47.4676 66.61 47.0276 67.12 46.2376 67.12C45.5176 67.12 44.9776 66.61 44.9476 65.86L43.7776 66.1C43.8576 67.18 44.7476 68.15 46.2476 68.15C47.7876 68.15 48.6776 67.14 48.6776 66.03C48.6776 64.78 47.7076 64.08 46.7376 64.06L48.4976 62.52V61.52H43.9976V62.57H46.9476L45.1576 64.17L45.7076 65.06Z" fill="white"/>
<path d="M46.97 30.03L34.265 36.6984V23.3616L46.97 30.03Z" fill="white"/>
</svg>
